<svg version="1.1" id="Capa_1" xmlns="http://www.w3.org/2000/svg" xmlns:xlink="http://www.w3.org/1999/xlink" x="0px" y="0px"
	 viewBox="0 0 1000 1000" style="enable-background:new 0 0 1000 1000;" xml:space="preserve">
<style type="text/css">
	.st0{fill:#FFFFFF;}
	.st1{fill:#4F4F4F;}
	.st2{fill:#B6B6B6;}
	.st3{fill:#AA7C50;}
	.st4{fill:#3F2602;}
	.st5{fill:#CEC8C6;}
	.st6{fill:#D39E00;}
	.st7{fill:#ECE1C8;}
	.st8{fill:#825B4F;}
</style>
<g>
	<g>
		<path class="st7" d="M592.9,318.8c26.3,10.4,50.8,25.4,72.6,44.6c40,35.4,66.9,81.7,77.7,133c4.6-5.6,10.7-10.3,18.8-12.1
			c-12.8-52.6-41.2-100-82.6-136.6c-25.6-22.6-54.6-39.8-85.8-51.1C594.2,304.3,593.9,311.7,592.9,318.8z"/>
		<path class="st7" d="M731.4,655.8c-3.6,2.6-7.3,4.8-11,6.4c-9.1,17.2-20.3,33.5-33.5,48.4c-43.5,49.2-103.6,78.6-169.2,82.6
			c-65.6,4-128.8-17.7-178-61.2c-6.5-5.8-12.7-11.9-18.5-18.2c-6.1,5.2-12.3,8.7-18.7,10.7c7.2,8.1,15,15.9,23.3,23.2
			c49.2,43.5,111.3,67,176.5,67c5.6,0,11.2-0.2,16.8-0.5c71.2-4.4,136.4-36.2,183.6-89.7c17.6-19.9,31.9-41.9,42.7-65.4
			C740.7,658.8,736,657.7,731.4,655.8z"/>
		<path class="st7" d="M251.4,513.6c2.5,1.3,4.8,2.8,6.9,4.5c5.9-49.2,26.4-95.4,59.9-133.3c18.1-20.5,39.1-37.5,62.1-50.7
			c2.6-10.8,7.2-21,13.8-30.6c-34.6,15.4-65.9,38.1-91.7,67.4c-34.8,39.3-56.7,86.9-64.1,137.7C243,509.7,247.4,511.4,251.4,513.6z"
			/>
	</g>
	<path class="st7" d="M180.5,617c-14.2,2.1-28.1,0.9-40.3-3.2c-18.2,25.8-30.9,54.2-27.8,74.6c1.8,12.1,11.5,18.1,23.8,16.3
		c33.2-5,50.7-39.5,48.4-55c-0.7-4.5-4.1-6.7-8.6-6c-7.5,1.1-16.8,11.1-17.3,23.1c-0.2,1.6,0.1,2.2-0.8,2.3
		c-0.9,0.1-3.4-3.9-4.1-8.4c-1.9-12.7,7.2-28.6,24.4-31.2c12.7-1.9,19.4,4.6,21,15.1c3.8,25.2-22.6,73-67.8,79.7
		c-24.3,3.6-45.5-9.7-49-33.2c-4.2-27.8,11.6-61.2,35.5-89.9c-11.1-9.4-18.8-22.3-21.2-38.5c-1.9-12.5,5.5-24.8,8.3-25.3
		c0.4-0.1,0.4-0.1,0.5,0.4c0.1,0.9,0.1,2.4,0.5,4.8c2.8,18.5,11.4,33.8,26,43c25.5-25.6,56.7-44.8,82.6-48.7
		c18.7-2.8,30.9,4.6,32.7,16.7C250.7,576.3,224.1,610.5,180.5,617z M214.7,547.5c-14.7,2.2-38.4,21.6-59.5,46.8
		c8.4,1.4,17.8,1.3,28.4-0.3c29.7-4.4,49.2-24.3,47.3-37.2C229.6,549.1,223.1,546.3,214.7,547.5z"/>
	<path class="st7" d="M373.6,685.5c-13.6,2-25.3-4.4-27.6-19.9c-3.2-21.1,20.1-64.2,20-64.9c-0.1-0.4-7.6-2.4-11.3-1.8
		c-0.9,0.1-1.5,0.4-1.6,0.9c-8,18.8-16.2,36.1-22.1,48c-0.5,1.2-1.2,1.9-2.1,2.1c-1.9,0.3-3.6-2.1-4.2-6c-0.2-1.5,0.7-3.9,1.2-5
		c2.2-4.5,6.5-13.8,10.5-26.9c4.5-13.9,4.4-23.4,7.1-33.7c2.7-11.4,5.6-14.1,12.7-15.1c3.2-0.5,5.2,1.2,5.8,4.9
		c0.6,4.3-1.3,6.4-1.2,7c0.1,0.9,1.5,1.3,5,0.8c10.1-1.5,21.9-5,25-5.5c6-0.9,15.8,9.8,16.5,14.7c0.6,3.9-5.6,8.3-9.5,14.4
		c-6.9,10.1-24.4,44.6-21.9,61.4c0.2,1.5,1.3,3.1,3.5,2.8c5.4-0.8,13.8-10.7,19.8-20.8c6.7-11.1,12-22.9,13.1-23.1
		c1.9-0.3,3.4,3.5,4,7.3C416.8,631.2,392.3,682.7,373.6,685.5z"/>
	<path class="st7" d="M489.9,642.5c0.3,2.2,1.6,3.5,3.8,3.2c13.8-2.1,30.7-43.6,32.7-43.9c2.2-0.3,3.6,3.2,4.2,7.3
		c0.6,4.1-23.9,55.3-42.8,58.2c-13.8,2.1-22.8-6.9-25.9-14.4c-2.3,5.2-12.8,22.2-26.6,24.2c-11.8,1.8-24.9-6.2-27.8-25.4
		c-4.7-31.7,25.3-87.3,60.6-92.5c12.3-1.8,16.8,10.7,17.3,12.6c4.3-11.2,22.6-72.5,26.9-73.2c8.6-1.3,15.9,7.8,17,14.9
		C530.4,521.9,487.2,624.9,489.9,642.5z M465.6,572.8c-18.3,2.7-34.8,51.7-31.7,72.4c0.9,6,3.6,9.4,8.1,8.7
		c12.3-1.8,35.2-62.1,34.4-67.5C474.8,575.4,469.9,572.2,465.6,572.8z"/>
	<path class="st7" d="M703.7,636.4c-10.1,1.5-21-5-22.7-16.2c-3.7-24.6,13.7-62.8,18.2-71.4l-0.9-0.3
		c-10.1,13.2-29.5,42.7-38.8,62.9c-9.1,19.9-11.6,33.2-16.1,33.9c-4.3,0.6-14.8-4.4-15.9-12.4c-1.5-10.1,26.8-102.5,36.2-103.9
		c3.2-0.5,15.3,0.6,16.2,6.6c0.8,5.4-4.1,22.4-4.7,26.2l0.2,0.2c3.3-4.5,23.6-36.8,35.4-38.6c8-1.2,19.1,2.6,19.7,6.5
		c0.9,5.8-1.2,9.9-3.3,16.1c-1.9,6.2-19.7,53.8-18.3,63.1c0.4,2.6,1.3,4.4,5.6,3.8c11.2-1.7,28.9-43.7,30.9-44
		c1.9-0.3,3.3,3.2,3.9,6.9C750.2,582.1,724.8,633.2,703.7,636.4z"/>
	<path class="st7" d="M808.8,620.6c-10.1,1.5-21-5-22.7-16.2c-3.7-24.6,13.7-62.8,18.2-71.4l-0.9-0.3
		c-10.1,13.2-29.5,42.7-38.8,62.9c-9.1,19.9-11.6,33.2-16.1,33.9c-4.3,0.6-14.8-4.4-15.9-12.4c-1.5-10.1,26.8-102.5,36.2-103.9
		c3.2-0.5,15.3,0.6,16.2,6.6c0.8,5.4-4.1,22.4-4.7,26.2l0.2,0.2c3.3-4.5,23.6-36.8,35.4-38.6c8-1.2,19.1,2.6,19.7,6.5
		c0.9,5.8-1.2,9.9-3.3,16.1c-1.9,6.2-19.7,53.8-18.3,63.1c0.4,2.6,1.3,4.4,5.6,3.8c11.2-1.7,28.9-43.7,30.9-44
		c1.9-0.3,3.3,3.2,3.9,6.9C855.3,566.3,830,617.5,808.8,620.6z"/>
	<path class="st7" d="M865.7,612.4c-10.8,1.6-19.5-9.9-21.4-22.1c-3.9-26.3,21.6-85.6,31.9-91.8c0.8-0.3,3-0.9,5.5-1.3
		c5.4-0.8,13.1-0.9,13.6,2.8c0.1,0.4-0.1,1.1-0.4,1.8c-3.2,9.3-27.1,70.6-24.9,85.4c0.5,3.2,2,4.3,3.7,4.1c13.4-2,32-46.4,34-46.7
		c2.4-0.4,3.3,4.6,3.8,7.6C912.2,556.1,888.2,609,865.7,612.4z M900.1,481.5c-10.1,1.5-20.1-4.5-21.6-14.8
		c-1.7-11.2,7.2-21.3,17.9-22.9c10.1-1.5,20.1,4.5,21.6,14.8C919.8,469.7,910.9,479.8,900.1,481.5z"/>
	<g id="XMLID_00000163032185063941722190000014983279013514841022_">
		<path id="XMLID_00000111164153549041542920000014566179733408442786_" class="st7" d="M462.4,501.3c0,0-89.1-93.7,22.8-162.8
			c111.9-69.1,2.9-183.3,2.9-183.3s150.8,165.9,34.1,206.1S462.4,501.3,462.4,501.3z"/>
		<path id="XMLID_00000160903157292018940560000002978882006394430135_" class="st7" d="M431.1,415.2c0,0-68.3-71.8,17.4-124.8
			c85.7-53,2.2-140.4,2.2-140.4S566.4,277.1,477,307.9C387.5,338.8,431.1,415.2,431.1,415.2z"/>
	</g>
	<g>
		<path class="st7" d="M210.2,507.6c2.9-0.4,5.7-0.7,8.5-0.8c7.8-54.9,31.4-106.4,69-148.9c38-43,86.9-73,141.1-87.3
			c1.7-1.2,3.5-2.3,5.3-3.4c8.9-5.5,15.4-11.4,19.7-17.8c-68.8,11.1-131,45.3-177.8,98.2c-40.6,46-65.8,101.9-73.4,161.5
			C205.2,508.4,207.8,507.9,210.2,507.6z"/>
		<path class="st7" d="M589.2,271.3c0.3,1.1,0.5,2.1,0.8,3.1c37.4,11.9,72.2,31.6,102.5,58.4c45.8,40.5,76.8,93.2,89.9,151.8
			c1.1,0.2,2.2,0.5,3.2,0.8c2,0.5,3.9,1.2,5.7,1.9c2.2-1.7,4.4-3.1,6.7-4.3c-13.5-62.4-46.4-118.7-95.1-161.8
			c-34.7-30.6-75-52.5-118.2-64.6C586.3,261.6,587.9,266.5,589.2,271.3z"/>
		<path class="st7" d="M777.6,641.9c-0.1-0.1-0.2-0.2-0.4-0.3c-2.1,3.5-4.4,6.3-6.8,8.6c-12.1,31.6-29.9,61.2-53,87.3
			c-50.7,57.4-120.8,91.6-197.2,96.3c-76.5,4.7-150.2-20.6-207.5-71.3c-13.1-11.5-24.9-24.1-35.5-37.5c-1.9-0.5-3.7-1.1-5.6-1.9
			c-3.1,2.4-6.6,4.7-10.4,6.7c12.1,15.9,25.8,30.8,41.1,44.3c55.7,49.3,126,75.8,199.8,75.8c6.3,0,12.7-0.2,19-0.6
			c80.6-5,154.4-41,207.9-101.5c26.4-29.9,46.3-64,59-100.5C784.5,646,780.9,644.2,777.6,641.9z"/>
	</g>
	<path class="st7" d="M330.2,631.2c-2.2,0.3-19.1,41.8-32.9,43.9c-2.2,0.3-3.5-1-3.8-3.2c-2-13.4,27.9-72.5,26.2-84.3
		c-0.5-3-3.7-3-6-3.1c-2.7-0.3-2.6-0.9-6.4-0.4c-3.9,0.6-13.2,16.3-14.3,16.5c-0.6,0.1-4.4-14.5-21.8-11.9
		c-35.3,5.3-65.4,60.9-60.6,92.5c2.9,19.2,15.9,27.1,27.8,25.4c17.9-2.7,30.6-24.8,31.3-24.9c0.6-0.1,6.8,17.3,21.8,15
		c18.7-2.8,43.2-54,42.6-58.1C333.6,634.4,332.2,630.9,330.2,631.2z M280.7,617.8c-3.2,27.5-16.9,48-16.9,48
		c0.6,4.1-12.9,16.7-18.5,17.5c-4.3,0.6-7.3-2.9-8.3-9.8c-3.2-21.1,15.3-69.9,32.8-72.5c5.2-0.8,9.6,3.9,10.6,10.5c0,0,0,0.1,0,0.1
		C280.9,612.9,281,614.8,280.7,617.8z"/>
	<path class="st7" d="M640.3,584.8c-2.2,0.3-19.1,41.8-32.9,43.9c-2.2,0.3-3.5-1-3.8-3.2c-2-13.4,27.9-72.5,26.2-84.3
		c-0.5-3-3.7-3-6-3.1c-2.7-0.3-2.6-0.9-6.4-0.4c-3.9,0.6-13.2,16.3-14.3,16.5c-0.6,0.1-4.4-14.5-21.8-11.9
		c-35.3,5.3-65.4,60.9-60.6,92.5c2.9,19.2,15.9,27.1,27.8,25.4c17.9-2.7,30.6-24.8,31.3-24.9c0.6-0.1,6.8,17.3,21.8,15
		c18.7-2.8,43.2-54,42.6-58.1C643.6,588.1,642.2,584.5,640.3,584.8z M590.7,571.4c-3.2,27.5-16.9,48-16.9,48
		c0.6,4.1-12.9,16.7-18.5,17.5c-4.3,0.6-7.3-2.9-8.3-9.8c-3.2-21.1,15.3-69.9,32.8-72.5c5.2-0.8,9.6,3.9,10.6,10.5c0,0,0,0.1,0,0.1
		C590.9,566.5,591,568.5,590.7,571.4z"/>
</g>
</svg>